<svg width="162" height="20" viewBox="0 0 162 20" fill="none" xmlns="http://www.w3.org/2000/svg">
<g clip-path="url(#clip0)">
<path d="M2.15607 17V2.447H11.9841V5.198H5.43207V8.054H11.2491V10.742H5.43207V14.249H12.4671V17H2.15607ZM18.7554 2.447C19.0074 2.909 19.2944 3.483 19.6164 4.169C19.9524 4.841 20.2954 5.576 20.6454 6.374C21.0094 7.158 21.3664 7.963 21.7164 8.789C22.0664 9.615 22.3954 10.392 22.7034 11.12C23.0114 10.392 23.3404 9.615 23.6904 8.789C24.0404 7.963 24.3904 7.158 24.7404 6.374C25.1044 5.576 25.4474 4.841 25.7694 4.169C26.1054 3.483 26.3994 2.909 26.6514 2.447H29.6334C29.7734 3.413 29.8994 4.498 30.0114 5.702C30.1374 6.892 30.2424 8.138 30.3264 9.44C30.4244 10.728 30.5084 12.023 30.5784 13.325C30.6624 14.627 30.7324 15.852 30.7884 17H27.5964C27.5544 15.586 27.4984 14.046 27.4284 12.38C27.3584 10.714 27.2534 9.034 27.1134 7.34C26.8614 7.928 26.5814 8.579 26.2734 9.293C25.9654 10.007 25.6574 10.721 25.3494 11.435C25.0554 12.149 24.7684 12.835 24.4884 13.493C24.2084 14.137 23.9704 14.69 23.7744 15.152H21.4854C21.2894 14.69 21.0514 14.137 20.7714 13.493C20.4914 12.835 20.1974 12.149 19.8894 11.435C19.5954 10.721 19.2944 10.007 18.9864 9.293C18.6784 8.579 18.3984 7.928 18.1464 7.34C18.0064 9.034 17.9014 10.714 17.8314 12.38C17.7614 14.046 17.7054 15.586 17.6634 17H14.4714C14.5274 15.852 14.5904 14.627 14.6604 13.325C14.7444 12.023 14.8284 10.728 14.9124 9.44C15.0104 8.138 15.1154 6.892 15.2274 5.702C15.3534 4.498 15.4864 3.413 15.6264 2.447H18.7554ZM33.7381 2.447H37.0141V17H33.7381V2.447ZM52.5256 4.967C50.9996 4.967 49.8936 5.394 49.2076 6.248C48.5356 7.088 48.1996 8.243 48.1996 9.713C48.1996 10.427 48.2836 11.078 48.4516 11.666C48.6196 12.24 48.8716 12.737 49.2076 13.157C49.5436 13.577 49.9636 13.906 50.4676 14.144C50.9716 14.368 51.5596 14.48 52.2316 14.48C52.5956 14.48 52.9036 14.473 53.1556 14.459C53.4216 14.445 53.6526 14.417 53.8486 14.375V9.314H57.1246V16.517C56.7326 16.671 56.1026 16.832 55.2346 17C54.3666 17.182 53.2956 17.273 52.0216 17.273C50.9296 17.273 49.9356 17.105 49.0396 16.769C48.1576 16.433 47.4016 15.943 46.7716 15.299C46.1416 14.655 45.6516 13.864 45.3016 12.926C44.9656 11.988 44.7976 10.917 44.7976 9.713C44.7976 8.495 44.9866 7.417 45.3646 6.479C45.7426 5.541 46.2606 4.75 46.9186 4.106C47.5766 3.448 48.3466 2.951 49.2286 2.615C50.1246 2.279 51.0766 2.111 52.0846 2.111C52.7706 2.111 53.3866 2.16 53.9326 2.258C54.4926 2.342 54.9686 2.447 55.3606 2.573C55.7666 2.685 56.0956 2.804 56.3476 2.93C56.6136 3.056 56.8026 3.154 56.9146 3.224L55.9696 5.849C55.5216 5.611 55.0036 5.408 54.4156 5.24C53.8416 5.058 53.2116 4.967 52.5256 4.967ZM64.3727 17.21C63.4627 17.196 62.7207 17.098 62.1467 16.916C61.5867 16.734 61.1387 16.482 60.8027 16.16C60.4807 15.824 60.2567 15.425 60.1307 14.963C60.0187 14.487 59.9627 13.955 59.9627 13.367V1.208L63.0917 0.704V12.737C63.0917 13.017 63.1127 13.269 63.1547 13.493C63.1967 13.717 63.2737 13.906 63.3857 14.06C63.5117 14.214 63.6867 14.34 63.9107 14.438C64.1347 14.536 64.4357 14.599 64.8137 14.627L64.3727 17.21ZM76.9392 11.456C76.9392 12.324 76.8132 13.122 76.5612 13.85C76.3092 14.564 75.9452 15.18 75.4692 15.698C74.9932 16.202 74.4192 16.594 73.7472 16.874C73.0892 17.154 72.3472 17.294 71.5212 17.294C70.7092 17.294 69.9672 17.154 69.2952 16.874C68.6372 16.594 68.0702 16.202 67.5942 15.698C67.1182 15.18 66.7472 14.564 66.4812 13.85C66.2152 13.122 66.0822 12.324 66.0822 11.456C66.0822 10.588 66.2152 9.797 66.4812 9.083C66.7612 8.369 67.1392 7.76 67.6152 7.256C68.1052 6.752 68.6792 6.36 69.3372 6.08C70.0092 5.8 70.7372 5.66 71.5212 5.66C72.3192 5.66 73.0472 5.8 73.7052 6.08C74.3772 6.36 74.9512 6.752 75.4272 7.256C75.9032 7.76 76.2742 8.369 76.5402 9.083C76.8062 9.797 76.9392 10.588 76.9392 11.456ZM73.7472 11.456C73.7472 10.49 73.5512 9.734 73.1592 9.188C72.7812 8.628 72.2352 8.348 71.5212 8.348C70.8072 8.348 70.2542 8.628 69.8622 9.188C69.4702 9.734 69.2742 10.49 69.2742 11.456C69.2742 12.422 69.4702 13.192 69.8622 13.766C70.2542 14.326 70.8072 14.606 71.5212 14.606C72.2352 14.606 72.7812 14.326 73.1592 13.766C73.5512 13.192 73.7472 12.422 73.7472 11.456ZM86.4401 11.393C86.4401 9.377 85.6981 8.369 84.2141 8.369C83.8921 8.369 83.5701 8.411 83.2481 8.495C82.9401 8.579 82.6881 8.684 82.4921 8.81V14.501C82.6461 14.529 82.8421 14.557 83.0801 14.585C83.3181 14.599 83.5771 14.606 83.8571 14.606C84.7111 14.606 85.3551 14.312 85.7891 13.724C86.2231 13.136 86.4401 12.359 86.4401 11.393ZM89.6321 11.477C89.6321 12.359 89.4991 13.157 89.2331 13.871C88.9811 14.585 88.6101 15.194 88.1201 15.698C87.6301 16.202 87.0281 16.594 86.3141 16.874C85.6001 17.14 84.7881 17.273 83.8781 17.273C83.5001 17.273 83.1011 17.252 82.6811 17.21C82.2751 17.182 81.8691 17.14 81.4631 17.084C81.0711 17.028 80.6931 16.965 80.3291 16.895C79.9651 16.811 79.6431 16.727 79.3631 16.643V1.208L82.4921 0.704V6.206C82.8421 6.052 83.2061 5.933 83.5841 5.849C83.9621 5.765 84.3681 5.723 84.8021 5.723C85.5861 5.723 86.2791 5.863 86.8811 6.143C87.4831 6.409 87.9871 6.794 88.3931 7.298C88.7991 7.802 89.1071 8.411 89.3171 9.125C89.5271 9.825 89.6321 10.609 89.6321 11.477ZM96.2579 14.816C96.5659 14.816 96.8599 14.809 97.1399 14.795C97.4199 14.781 97.6439 14.76 97.8119 14.732V12.359C97.6859 12.331 97.4969 12.303 97.2449 12.275C96.9929 12.247 96.7619 12.233 96.5519 12.233C96.2579 12.233 95.9779 12.254 95.7119 12.296C95.4599 12.324 95.2359 12.387 95.0399 12.485C94.8439 12.583 94.6899 12.716 94.5779 12.884C94.4659 13.052 94.4099 13.262 94.4099 13.514C94.4099 14.004 94.5709 14.347 94.8929 14.543C95.2289 14.725 95.6839 14.816 96.2579 14.816ZM96.0059 5.66C96.9299 5.66 97.6999 5.765 98.3159 5.975C98.9319 6.185 99.4219 6.486 99.7859 6.878C100.164 7.27 100.43 7.746 100.584 8.306C100.738 8.866 100.815 9.489 100.815 10.175V16.685C100.367 16.783 99.7439 16.895 98.9459 17.021C98.1479 17.161 97.1819 17.231 96.0479 17.231C95.3339 17.231 94.6829 17.168 94.0949 17.042C93.5209 16.916 93.0239 16.713 92.6039 16.433C92.1839 16.139 91.8619 15.761 91.6379 15.299C91.4139 14.837 91.3019 14.27 91.3019 13.598C91.3019 12.954 91.4279 12.408 91.6799 11.96C91.9459 11.512 92.2959 11.155 92.7299 10.889C93.1639 10.623 93.6609 10.434 94.2209 10.322C94.7809 10.196 95.3619 10.133 95.9639 10.133C96.3699 10.133 96.7269 10.154 97.0349 10.196C97.3569 10.224 97.6159 10.266 97.8119 10.322V10.028C97.8119 9.496 97.6509 9.069 97.3289 8.747C97.0069 8.425 96.4469 8.264 95.6489 8.264C95.1169 8.264 94.5919 8.306 94.0739 8.39C93.5559 8.46 93.1079 8.565 92.7299 8.705L92.3309 6.185C92.5129 6.129 92.7369 6.073 93.0029 6.017C93.2829 5.947 93.5839 5.891 93.9059 5.849C94.2279 5.793 94.5639 5.751 94.9139 5.723C95.2779 5.681 95.6419 5.66 96.0059 5.66ZM108.054 17.21C107.144 17.196 106.402 17.098 105.828 16.916C105.268 16.734 104.82 16.482 104.484 16.16C104.162 15.824 103.938 15.425 103.812 14.963C103.7 14.487 103.644 13.955 103.644 13.367V1.208L106.773 0.704V12.737C106.773 13.017 106.794 13.269 106.836 13.493C106.878 13.717 106.955 13.906 107.067 14.06C107.193 14.214 107.368 14.34 107.592 14.438C107.816 14.536 108.117 14.599 108.495 14.627L108.054 17.21ZM122.18 17.294C119.814 17.294 118.008 16.636 116.762 15.32C115.53 14.004 114.914 12.135 114.914 9.713C114.914 8.509 115.103 7.438 115.481 6.5C115.859 5.548 116.377 4.75 117.035 4.106C117.693 3.448 118.477 2.951 119.387 2.615C120.297 2.279 121.284 2.111 122.348 2.111C122.964 2.111 123.524 2.16 124.028 2.258C124.532 2.342 124.973 2.447 125.351 2.573C125.729 2.685 126.044 2.804 126.296 2.93C126.548 3.056 126.73 3.154 126.842 3.224L125.897 5.87C125.449 5.632 124.924 5.429 124.322 5.261C123.734 5.093 123.062 5.009 122.306 5.009C121.802 5.009 121.305 5.093 120.815 5.261C120.339 5.429 119.912 5.702 119.534 6.08C119.17 6.444 118.876 6.92 118.652 7.508C118.428 8.096 118.316 8.81 118.316 9.65C118.316 10.322 118.386 10.952 118.526 11.54C118.68 12.114 118.918 12.611 119.24 13.031C119.576 13.451 120.01 13.787 120.542 14.039C121.074 14.277 121.718 14.396 122.474 14.396C122.95 14.396 123.377 14.368 123.755 14.312C124.133 14.256 124.469 14.193 124.763 14.123C125.057 14.039 125.316 13.948 125.54 13.85C125.764 13.752 125.967 13.661 126.149 13.577L127.052 16.202C126.59 16.482 125.939 16.734 125.099 16.958C124.259 17.182 123.286 17.294 122.18 17.294ZM139.037 11.456C139.037 12.324 138.911 13.122 138.659 13.85C138.407 14.564 138.043 15.18 137.567 15.698C137.091 16.202 136.517 16.594 135.845 16.874C135.187 17.154 134.445 17.294 133.619 17.294C132.807 17.294 132.065 17.154 131.393 16.874C130.735 16.594 130.168 16.202 129.692 15.698C129.216 15.18 128.845 14.564 128.579 13.85C128.313 13.122 128.18 12.324 128.18 11.456C128.18 10.588 128.313 9.797 128.579 9.083C128.859 8.369 129.237 7.76 129.713 7.256C130.203 6.752 130.777 6.36 131.435 6.08C132.107 5.8 132.835 5.66 133.619 5.66C134.417 5.66 135.145 5.8 135.803 6.08C136.475 6.36 137.049 6.752 137.525 7.256C138.001 7.76 138.372 8.369 138.638 9.083C138.904 9.797 139.037 10.588 139.037 11.456ZM135.845 11.456C135.845 10.49 135.649 9.734 135.257 9.188C134.879 8.628 134.333 8.348 133.619 8.348C132.905 8.348 132.352 8.628 131.96 9.188C131.568 9.734 131.372 10.49 131.372 11.456C131.372 12.422 131.568 13.192 131.96 13.766C132.352 14.326 132.905 14.606 133.619 14.606C134.333 14.606 134.879 14.326 135.257 13.766C135.649 13.192 135.845 12.422 135.845 11.456ZM148.118 8.726C147.838 8.656 147.509 8.586 147.131 8.516C146.753 8.432 146.347 8.39 145.913 8.39C145.717 8.39 145.479 8.411 145.199 8.453C144.933 8.481 144.73 8.516 144.59 8.558V17H141.461V6.542C142.021 6.346 142.679 6.164 143.435 5.996C144.205 5.814 145.059 5.723 145.997 5.723C146.165 5.723 146.368 5.737 146.606 5.765C146.844 5.779 147.082 5.807 147.32 5.849C147.558 5.877 147.796 5.919 148.034 5.975C148.272 6.017 148.475 6.073 148.643 6.143L148.118 8.726ZM157.397 11.561C157.397 10.595 157.18 9.825 156.746 9.251C156.312 8.663 155.668 8.369 154.814 8.369C154.534 8.369 154.275 8.383 154.037 8.411C153.799 8.425 153.603 8.446 153.449 8.474V14.123C153.645 14.249 153.897 14.354 154.205 14.438C154.527 14.522 154.849 14.564 155.171 14.564C156.655 14.564 157.397 13.563 157.397 11.561ZM160.589 11.477C160.589 12.331 160.484 13.108 160.274 13.808C160.064 14.508 159.756 15.11 159.35 15.614C158.944 16.118 158.44 16.51 157.838 16.79C157.236 17.07 156.543 17.21 155.759 17.21C155.325 17.21 154.919 17.168 154.541 17.084C154.163 17 153.799 16.881 153.449 16.727V20.885H150.32V6.332C150.6 6.248 150.922 6.171 151.286 6.101C151.65 6.017 152.028 5.947 152.42 5.891C152.826 5.835 153.232 5.793 153.638 5.765C154.058 5.723 154.457 5.702 154.835 5.702C155.745 5.702 156.557 5.842 157.271 6.122C157.985 6.388 158.587 6.773 159.077 7.277C159.567 7.767 159.938 8.369 160.19 9.083C160.456 9.797 160.589 10.595 160.589 11.477Z" fill="white"/>
</g>
<defs>
<clipPath id="clip0">
<rect width="162" height="20" fill="white"/>
</clipPath>
</defs>
</svg>
